<?xml version="1.0" encoding="utf-8"?>
<!-- Generator: Adobe Illustrator 27.9.0, SVG Export Plug-In . SVG Version: 6.00 Build 0)  -->
<svg version="1.1" id="Layer_1" xmlns="http://www.w3.org/2000/svg" xmlns:xlink="http://www.w3.org/1999/xlink" x="0px" y="0px"
	 viewBox="0 0 995 208.5" style="enable-background:new 0 0 995 208.5;" xml:space="preserve">
<style type="text/css">
	.st0{fill:#3C82F6;}
	.st1{fill:#F48B5D;}
</style>
<g>
	<g>
		<g>
			<path class="st0" d="M345.2,33.7c-5.8,5.9-11.5,11.8-19.1,19.6c13.5,0,24.8,0,36.6,0c0,12.5,0,23.5,0,35.4c-10.7,0-21.3,0-33.2,0
				c-0.7,10.4-1.6,20.6,0.6,30.7c1.6,7.3,6.5,12.5,14.4,13c8,0.5,16,0.1,24.7,0.1c-0.5-3.8-0.8-6.7-1.4-9.7c-6.3-35.4,11.8-62,47-68
				c15.3-2.6,30.7-2.4,45.9,1.7c25.5,7,41.1,26.1,41.5,50.5c0,2.3-0.4,4.5-0.9,8.5c-15,0.3-29.9,0.1-44.7,0.1c-15,0-30,0-45.1,0
				c4.1,23.2,29,26.5,53.7,8c10.7,4,21.4,8,32.6,12.2c-4.8,13.3-14.1,21.2-26.4,26.2c-12.3,5.1-25.4,6.4-38.5,6.5
				c-33.9,0.2-67.8,0-101.7,0c-3.1,0-6.2-0.2-9.2-0.6c-23.4-2.8-35.9-15.9-36.9-39.6c-0.5-12.6-0.1-25.3-0.1-38.7
				c-4.5,0-8.1,0-12.4,0c-1,3.3-2.1,6.5-3,9.8c-5.7,20.2-18.4,33.4-39,38.5c-19.8,4.9-39.7,4.8-59.5,0.2
				c-12.1-2.8-22.2-8.7-28.8-19.6c-0.8-1.3-1-2.9-2.8-3.8c-2.4,25.7-12.7,44.7-37.2,51.6c-22.4,6.3-41.6-1.4-57.1-20.4
				c-2.3,7.8-4.3,14.7-6.4,21.9c-13,0-25.6,0-38.9,0C0,114,0,60.7,0,5.8c14.7-0.5,29.5-0.1,45.8-0.2c1.2,11.8-0.5,23.1-0.5,34.5
				c0,11.4,0,22.8,0,37.2C57,59.5,72,53,90.5,53.4c19.8,0.4,31.4,12.4,42.5,27.8c0-8.8,0-17.6,0-27.2c14.5,0,27.3,0,41.4,0
				c0,9.7-0.1,18.9,0,28c0.2,16.5,6.3,23,22.6,24.3c3.8,0.3,7.7,0.3,11.5-0.3c15.6-2.3,22.3-7.5,22.5-23.7c0.1-9.2,0-18.3,0-29.1
				c5.7,0,10.2,0,14.7,0c6.2,0,12.3-0.1,18.5-0.1c12.5,0,21.4-5.4,26-17.2c0.5-1.4,1.3-2.7,2.2-4.4c17.3,0,34.4,0,51.5,0
				C344.4,32.2,344.8,33,345.2,33.7z M45.3,113.5c0.2,14.6,8.6,23,23,22.8c13.2-0.2,22.5-10.4,22-24.4C90,99.5,80.4,90.5,67.8,90.8
				C54.6,91.1,45.1,100.7,45.3,113.5z M459,97.8c-6.1-12.2-15.1-14.8-25.5-13.7c-8.7,0.9-16.9,3.2-20.5,13.7
				C428.3,97.8,442.8,97.8,459,97.8z"/>
			<path class="st0" d="M229.6,150.7c13.8,0,27.1,0,40.3,0c3.2,17.5-6.2,36.5-22.7,46.9c-9.7,6.1-20.5,8.7-31.7,10
				c-14.6,1.7-29.2,1.1-43.5-3.2c-24.6-7.4-38.1-26.4-37.7-53.2c1.7-0.3,3.5-1,5.3-1c11.9-0.1,23.8,0,35.3,0
				c6.5,19,12.7,24,28.7,23.5C218.4,173.2,224.7,167.8,229.6,150.7z"/>
			<path class="st0" d="M553.4,6.5c1.9,37.2-1.7,73-6.3,109.6c-12.1,0-23.8,0-36.2,0c-5.1-36.2-7.6-72.4-7.1-109.6
				C520.5,6.5,536.4,6.5,553.4,6.5z"/>
			<path class="st0" d="M551.4,168c-15.8,0-30.3,0-45.5,0c0-11.8,0-23,0-35c15.1,0,29.8,0,45.5,0C551.4,144.5,551.4,155.8,551.4,168
				z"/>
		</g>
	</g>
	<g>
		<path class="st1" d="M702.2,151.6h-22c-4.5,0-8.8-0.8-12.8-2.4c-4-1.6-7.3-4.1-9.8-7.7c-2.5-3.6-3.8-8.4-3.8-14.5V82.9l1-5.2
			c0-7.8-1.3-13.9-3.9-18.3c-2.6-4.4-8.3-6.5-17-6.5c-8.2,0-15.8,2.1-22.7,6.1c-7,4.1-12.7,9.4-17.3,15.8l-18.8-27.2
			c4.2-4.7,9.3-9.1,15.4-13.1c6.1-4,13-7.3,20.8-9.8c7.8-2.5,16.2-3.8,25.2-3.8c16.2,0,28.8,4.2,37.8,12.7
			c9,8.5,13.5,20.7,13.5,36.7v43.9c0,2.8,0.6,4.8,1.7,5.9c1.1,1.1,2.8,1.7,5.1,1.7h7.6V151.6z M612.2,154.5c-9.9,0-18-2.7-24.3-8
			c-6.3-5.3-9.4-13.1-9.4-23.4c0-9.8,3.1-17.6,9.3-23.7c6.2-6,15.3-11.1,27.3-15.3l42.6-15.9l3.4,22.2l-34.5,14.4
			c-5.1,2.1-8.6,4.1-10.6,6.1c-2,2-3,4.2-3,6.7c0,3,1.1,5.3,3.3,6.9c2.2,1.7,5.4,2.5,9.8,2.5c4.4,0,8.3-0.6,11.8-1.7
			c3.5-1.1,6.4-2.7,8.8-4.8c2.4-2.1,4.1-4.6,5.4-7.6c1.2-3,1.8-6.4,1.8-10.5l0.8,12.6c-1.2,5.8-3.4,11.6-6.4,17.6
			c-3.1,6-7.5,11.2-13.3,15.4C629,152.4,621.5,154.5,612.2,154.5z"/>
		<path class="st1" d="M757.3,200.3H720V23.5h37.4V200.3z M796.6,154.3c-9.9,0-17.7-2.3-23.3-6.8c-5.6-4.5-9.6-10.3-12-17.4
			c-2.4-7.1-4.1-14.5-5-22.4l1-13.3c0,7,0.9,12.7,2.7,17.3c1.8,4.5,4.6,7.9,8.2,10.2c3.7,2.3,8.1,3.4,13.3,3.4
			c8.5,0,15.3-3.3,20.3-9.8c5-6.5,7.5-15.8,7.5-27.8c0-12.4-2.5-21.7-7.5-28.1c-5-6.4-11.7-9.5-20.3-9.5c-5.2,0-9.7,1.1-13.3,3.3
			c-3.7,2.2-6.4,5.5-8.2,10.1c-1.8,4.5-2.7,10.3-2.7,17.3l-1-13.3c0.9-7.8,2.7-15.3,5.4-22.5c2.7-7.1,7-12.9,12.8-17.4
			c5.8-4.4,13.7-6.7,23.7-6.7s18.6,2.6,26,7.8c7.4,5.2,13.1,12.8,17.1,22.7c4,9.9,6,22.1,6,36.3c0,13.9-2.1,25.9-6.1,36
			c-4.1,10-9.9,17.6-17.5,22.9C816,151.6,807,154.3,796.6,154.3z"/>
		<path class="st1" d="M905.1,200.3h-37.4V23.5h37.4V200.3z M944.3,154.3c-9.9,0-17.7-2.3-23.3-6.8c-5.6-4.5-9.6-10.3-12-17.4
			c-2.4-7.1-4.1-14.5-5-22.4l1-13.3c0,7,0.9,12.7,2.7,17.3c1.8,4.5,4.6,7.9,8.2,10.2c3.7,2.3,8.1,3.4,13.3,3.4
			c8.5,0,15.3-3.3,20.3-9.8c5-6.5,7.5-15.8,7.5-27.8c0-12.4-2.5-21.7-7.5-28.1c-5-6.4-11.7-9.5-20.3-9.5c-5.2,0-9.7,1.1-13.3,3.3
			c-3.7,2.2-6.4,5.5-8.2,10.1c-1.8,4.5-2.7,10.3-2.7,17.3l-1-13.3c0.9-7.8,2.7-15.3,5.4-22.5c2.7-7.1,7-12.9,12.8-17.4
			c5.8-4.4,13.7-6.7,23.7-6.7s18.6,2.6,26,7.8c7.4,5.2,13.1,12.8,17.1,22.7c4,9.9,6,22.1,6,36.3c0,13.9-2.1,25.9-6.1,36
			c-4.1,10-9.9,17.6-17.5,22.9C963.8,151.6,954.7,154.3,944.3,154.3z"/>
	</g>
</g>
</svg>
