<?xml version="1.0" encoding="UTF-8"?>
<svg id="Layer_1" data-name="Layer 1" xmlns="http://www.w3.org/2000/svg" viewBox="0 0 1097.14 208.48">
  <defs>
    <style>
      .cls-1 {
        fill: #f48b5d;
      }

      .cls-1, .cls-2 {
        stroke-width: 0px;
      }

      .cls-2 {
        fill: #3c82f6;
      }
    </style>
  </defs>
  <g>
    <path class="cls-2" d="m345.25,33.7c-5.76,5.9-11.51,11.79-19.13,19.6h36.64v35.36h-33.25c-.7,10.35-1.59,20.59.6,30.7,1.59,7.33,6.5,12.46,14.38,12.96,7.97.5,15.99.11,24.69.11-.52-3.78-.83-6.74-1.35-9.67-6.29-35.38,11.76-61.97,46.97-68.01,15.26-2.62,30.74-2.42,45.87,1.75,25.48,7.02,41.15,26.12,41.52,50.49.03,2.25-.44,4.52-.86,8.46-14.97.27-29.86.09-44.73.12-14.98.03-29.96,0-45.1,0,4.09,23.17,28.97,26.47,53.71,7.95,10.67,3.99,21.43,8.02,32.6,12.2-4.79,13.29-14.15,21.2-26.37,26.23-12.34,5.08-25.4,6.39-38.52,6.47-33.91.21-67.82.04-101.73-.02-3.07,0-6.17-.19-9.22-.56-23.43-2.84-35.89-15.94-36.88-39.56-.53-12.63-.09-25.29-.09-38.69h-12.36c-1.03,3.34-2.1,6.54-3.01,9.78-5.66,20.25-18.38,33.39-38.99,38.46-19.81,4.87-39.69,4.76-59.53.22-12.09-2.77-22.19-8.68-28.76-19.6-.78-1.3-1-2.92-2.83-3.76-2.4,25.66-12.7,44.73-37.16,51.62-22.38,6.3-41.64-1.42-57.08-20.42-2.27,7.81-4.26,14.67-6.38,21.95H0V5.81c14.65-.47,29.49-.11,45.84-.19,1.23,11.77-.5,23.14-.52,34.47-.02,11.42,0,22.83,0,37.17,11.72-17.72,26.67-24.28,45.16-23.91,19.8.4,31.36,12.38,42.48,27.82v-27.15h41.44c0,9.74-.11,18.88.02,28.02.24,16.49,6.28,23.01,22.63,24.3,3.82.3,7.75.29,11.53-.27,15.61-2.3,22.27-7.48,22.45-23.7.1-9.17.02-18.33.02-29.11,5.74,0,10.22.01,14.7,0,6.17-.02,12.33-.08,18.5-.09,12.48-.02,21.39-5.37,25.99-17.25.54-1.4,1.32-2.7,2.17-4.42h51.53c.44.73.87,1.46,1.31,2.19ZM45.26,113.5c.17,14.64,8.65,23.03,23.04,22.8,13.21-.21,22.46-10.43,22.04-24.36-.38-12.49-9.95-21.45-22.58-21.15-13.19.32-22.65,9.86-22.5,22.71Zm413.74-15.73c-6.08-12.17-15.09-14.8-25.53-13.69-8.67.93-16.94,3.22-20.53,13.69h46.05Z"/>
    <path class="cls-2" d="m229.6,150.71h40.35c3.21,17.47-6.19,36.48-22.73,46.93-9.69,6.12-20.51,8.68-31.65,9.96-14.65,1.68-29.23,1.11-43.46-3.17-24.57-7.39-38.11-26.37-37.66-53.19,1.71-.33,3.53-.98,5.35-1,11.88-.09,23.76-.05,35.28-.05,6.48,19.04,12.74,24.01,28.66,23.46,14.64-.5,20.93-5.83,25.87-22.96Z"/>
    <path class="cls-2" d="m553.36,6.53c1.93,37.21-1.68,73.05-6.33,109.6h-36.24c-5.1-36.22-7.59-72.38-7.11-109.6h49.68Z"/>
    <path class="cls-2" d="m551.45,168.03h-45.51v-34.99h45.51v34.99Z"/>
  </g>
  <g>
    <path class="cls-1" d="m635.95,182.02c-14.1,0-26.28-2.99-36.54-8.97-10.26-5.98-18.2-14.19-23.82-24.63-5.62-10.44-8.43-22.17-8.43-35.2s2.81-24.98,8.43-35.33c5.62-10.35,13.56-18.51,23.82-24.49,10.26-5.98,22.44-8.97,36.54-8.97,14.81,0,27.66,3.39,38.55,10.17,10.88,6.78,18.65,15.26,23.29,25.43l-37.47,24.63c-1.79-6.78-4.51-11.87-8.16-15.26-3.66-3.39-8.34-5.09-14.05-5.09-4.11,0-7.85,1.03-11.24,3.08-3.39,2.05-6.02,5.18-7.9,9.37-1.87,4.19-2.81,9.68-2.81,16.46s.94,12.05,2.81,16.33c1.87,4.28,4.5,7.45,7.9,9.5,3.39,2.05,7.14,3.08,11.24,3.08,5.71,0,10.39-1.69,14.05-5.09,3.66-3.39,6.38-8.47,8.16-15.26l37.47,24.63c-4.64,10.17-12.41,18.65-23.29,25.43-10.89,6.78-23.74,10.17-38.55,10.17Z"/>
    <path class="cls-1" d="m758,179.34h-48.18V0h48.18v179.34Zm82.98,0h-48.18v-73.88c0-8.03-1.07-14.14-3.21-18.34-2.14-4.19-6.87-6.29-14.19-6.29-4.64,0-8.21.72-10.71,2.14-2.5,1.43-4.24,4.06-5.22,7.9-.98,3.84-1.47,9.33-1.47,16.46l-.8-15.26c.89-8.03,2.9-15.7,6.02-23.02,3.12-7.31,7.76-13.25,13.92-17.8,6.16-4.55,14.23-6.83,24.22-6.83,12.31,0,21.99,3.66,29.04,10.97,7.05,7.32,10.57,17.76,10.57,31.32v92.62Z"/>
    <path class="cls-1" d="m989,179.34h-27.3c-5,0-9.77-.8-14.32-2.41-4.55-1.61-8.26-4.24-11.11-7.9-2.86-3.66-4.28-8.61-4.28-14.86v-39.62l2.14-6.69c0-8.21-.9-14.1-2.68-17.67-1.79-3.57-6.52-5.35-14.19-5.35s-15.44,1.87-23.29,5.62c-7.85,3.75-14.55,8.75-20.08,14.99l-21.41-35.33c5.53-4.99,11.78-9.41,18.74-13.25,6.96-3.84,14.54-6.87,22.75-9.1,8.21-2.23,16.86-3.35,25.96-3.35,16.95,0,30.33,4.2,40.15,12.58,9.81,8.39,14.72,21.06,14.72,38.01v39.88c0,2.86.49,4.86,1.47,6.02.98,1.16,2.63,1.74,4.95,1.74h7.76v36.67Zm-98.24,2.94c-9.64,0-17.8-2.59-24.49-7.76-6.69-5.17-10.04-13.74-10.04-25.7,0-10.71,3.25-19.31,9.77-25.83,6.51-6.51,17.09-12,31.72-16.46l38.55-11.78,3.48,27.57-29.45,10.44c-4.46,1.61-7.45,3.12-8.97,4.55-1.52,1.43-2.28,3.04-2.28,4.82,0,2.14.84,3.79,2.54,4.95,1.69,1.16,4.24,1.74,7.63,1.74,3.92,0,7.31-.4,10.17-1.2,2.85-.8,5.22-2.01,7.09-3.61s3.25-3.66,4.15-6.16c.89-2.5,1.34-5.44,1.34-8.83l.54,12.58c-1.25,5.89-3.35,11.96-6.29,18.2-2.94,6.25-7.23,11.56-12.85,15.93-5.62,4.37-13.16,6.56-22.62,6.56Z"/>
    <path class="cls-1" d="m1089.38,83.51h-99.04v-36.4h99.04v36.4Zm-33.46,98.5c-11.42,0-20.57-2.01-27.44-6.02-6.87-4.02-11.82-9.41-14.86-16.19-3.04-6.78-4.55-14.45-4.55-23.02V32.12l48.18-21.41v119.12c0,3.39.84,5.98,2.54,7.76,1.69,1.79,4.06,2.68,7.09,2.68s6.11-.98,9.23-2.94c3.12-1.96,5.76-4.64,7.9-8.03l13.12,36.14c-2.86,3.21-7.76,6.78-14.72,10.71-6.96,3.92-15.79,5.89-26.5,5.89Z"/>
  </g>
</svg>